<svg width="117" height="120" viewBox="0 0 117 120" fill="none" xmlns="http://www.w3.org/2000/svg">
<path d="M100.057 44.9154L115.803 35.5943V71.7952L100.094 62.4928L100.075 62.4741" stroke="white" stroke-width="1.652" stroke-miterlimit="10" stroke-linecap="round" stroke-linejoin="round"/>
<path d="M55.731 29.8971H46.4473" stroke="white" stroke-width="1.652" stroke-miterlimit="10" stroke-linecap="round" stroke-linejoin="round"/>
<path d="M92.2674 38.4149V48.782V58.5888V66.4903C92.2674 72.5798 87.336 77.5111 81.2465 77.5111H20.9491C14.8596 77.5111 9.92822 72.5798 9.92822 66.4903V61.2039V46.1857V38.4336" stroke="white" stroke-width="1.652" stroke-miterlimit="10" stroke-linecap="round" stroke-linejoin="round"/>
<path d="M25.5824 44.9715C37.7248 44.9715 47.5682 35.1281 47.5682 22.9857C47.5682 10.8433 37.7248 1 25.5824 1C13.44 1 3.59668 10.8433 3.59668 22.9857C3.59668 35.1281 13.44 44.9715 25.5824 44.9715Z" stroke="white" stroke-width="1.652" stroke-miterlimit="10" stroke-linecap="round" stroke-linejoin="round"/>
<path d="M76.6146 44.9715C88.757 44.9715 98.6004 35.1281 98.6004 22.9857C98.6004 10.8433 88.757 1 76.6146 1C64.4722 1 54.6289 10.8433 54.6289 22.9857C54.6289 35.1281 64.4722 44.9715 76.6146 44.9715Z" stroke="white" stroke-width="1.652" stroke-miterlimit="10" stroke-linecap="round" stroke-linejoin="round"/>
<path d="M25.5821 31.6904C30.3895 31.6904 34.2867 27.7931 34.2867 22.9857C34.2867 18.1782 30.3895 14.2811 25.5821 14.2811C20.7746 14.2811 16.8774 18.1782 16.8774 22.9857C16.8774 27.7931 20.7746 31.6904 25.5821 31.6904Z" stroke="white" stroke-width="1.652" stroke-miterlimit="10" stroke-linecap="round" stroke-linejoin="round"/>
<path d="M76.6143 31.6904C81.4217 31.6904 85.3189 27.7931 85.3189 22.9857C85.3189 18.1782 81.4217 14.2811 76.6143 14.2811C71.8068 14.2811 67.9097 18.1782 67.9097 22.9857C67.9097 27.7931 71.8068 31.6904 76.6143 31.6904Z" stroke="white" stroke-width="1.652" stroke-miterlimit="10" stroke-linecap="round" stroke-linejoin="round"/>
<path d="M71.6082 118.363L55.4878 86.5893" stroke="white" stroke-width="1.652" stroke-miterlimit="10" stroke-linecap="round" stroke-linejoin="round"/>
<path d="M46.9698 86.5893L30.5879 118.363" stroke="white" stroke-width="1.652" stroke-miterlimit="10" stroke-linecap="round" stroke-linejoin="round"/>
<path d="M57.7859 86.5893H44.3927C41.5908 86.5893 39.3306 84.3105 39.3306 81.5272V77.5298H62.8667V81.5272C62.8667 84.3105 60.5878 86.5893 57.7859 86.5893Z" stroke="white" stroke-width="1.652" stroke-miterlimit="10" stroke-linecap="round" stroke-linejoin="round"/>
<path d="M4.43702 61.2039H9.91012V46.1857H4.43702C2.53171 46.1857 1 47.736 1 49.6226V57.7483C1 59.6723 2.53171 61.2039 4.43702 61.2039Z" stroke="white" stroke-width="1.652" stroke-miterlimit="10" stroke-linecap="round" stroke-linejoin="round"/>
<path d="M100.076 44.9154H92.2676V62.4928H100.076V44.9154Z" stroke="white" stroke-width="1.652" stroke-miterlimit="10" stroke-linecap="round" stroke-linejoin="round"/>
<path d="M51.3042 86.5893V112.479" stroke="white" stroke-width="1.652" stroke-miterlimit="10" stroke-linecap="round" stroke-linejoin="round"/>
</svg>
