<svg width="97" height="108" viewBox="0 0 97 108" fill="none" xmlns="http://www.w3.org/2000/svg">
<path d="M79.7887 16.1474L68.8052 5.87372" stroke="white" stroke-width="1.652" stroke-miterlimit="10" stroke-linecap="round" stroke-linejoin="round"/>
<path d="M61.1089 21.77L50.144 11.4963" stroke="white" stroke-width="1.652" stroke-miterlimit="10" stroke-linecap="round" stroke-linejoin="round"/>
<path d="M42.4479 27.3738L31.4644 17.1187" stroke="white" stroke-width="1.652" stroke-miterlimit="10" stroke-linecap="round" stroke-linejoin="round"/>
<path d="M23.7877 32.9963L12.8042 22.7412" stroke="white" stroke-width="1.652" stroke-miterlimit="10" stroke-linecap="round" stroke-linejoin="round"/>
<path d="M1.24116 31.6514L3.5948 39.4594L92.0981 12.8038L89.7445 4.99576C88.8479 2.02572 85.7098 0.344548 82.7397 1.24116L4.99576 24.6653C2.02572 25.5619 0.344548 28.6814 1.24116 31.6514Z" stroke="white" stroke-width="1.652" stroke-miterlimit="10" stroke-linecap="round" stroke-linejoin="round"/>
<path d="M16.334 53.2262L23.8805 40.2253" stroke="white" stroke-width="1.652" stroke-miterlimit="10" stroke-linecap="round" stroke-linejoin="round"/>
<path d="M35.8354 53.2262L43.382 40.2253" stroke="white" stroke-width="1.652" stroke-miterlimit="10" stroke-linecap="round" stroke-linejoin="round"/>
<path d="M55.3184 53.2262L62.8649 40.2253" stroke="white" stroke-width="1.652" stroke-miterlimit="10" stroke-linecap="round" stroke-linejoin="round"/>
<path d="M74.8013 53.2262L82.3664 40.2253" stroke="white" stroke-width="1.652" stroke-miterlimit="10" stroke-linecap="round" stroke-linejoin="round"/>
<path d="M96.0204 39.833V101.457C96.0204 104.557 93.4987 107.079 90.3979 107.079H9.19823C6.09743 107.079 3.57568 104.557 3.57568 101.457V39.833H96.0204Z" stroke="white" stroke-width="1.652" stroke-miterlimit="10" stroke-linecap="round" stroke-linejoin="round"/>
<path d="M3.81934 53.2262H95.3861" stroke="white" stroke-width="1.652" stroke-miterlimit="10" stroke-linecap="round" stroke-linejoin="round"/>
<path d="M26.3467 72.2231H73.2695" stroke="white" stroke-width="1.652" stroke-miterlimit="10" stroke-linecap="round" stroke-linejoin="round"/>
<path d="M26.3467 88.5491H73.2695" stroke="white" stroke-width="1.652" stroke-miterlimit="10" stroke-linecap="round" stroke-linejoin="round"/>
</svg>
