<svg width="103" height="83" viewBox="0 0 103 83" fill="none" xmlns="http://www.w3.org/2000/svg">
<path d="M1.00293 14.1374V2.0892" stroke="white" stroke-width="1.652" stroke-miterlimit="10" stroke-linecap="round" stroke-linejoin="round"/>
<path d="M15.3672 14.1374V2.0892" stroke="white" stroke-width="1.652" stroke-miterlimit="10" stroke-linecap="round" stroke-linejoin="round"/>
<path d="M29.7505 14.1374V2.0892" stroke="white" stroke-width="1.652" stroke-miterlimit="10" stroke-linecap="round" stroke-linejoin="round"/>
<path d="M44.1152 14.1374V2.0892" stroke="white" stroke-width="1.652" stroke-miterlimit="10" stroke-linecap="round" stroke-linejoin="round"/>
<path d="M58.4976 14.1374V2.0892" stroke="white" stroke-width="1.652" stroke-miterlimit="10" stroke-linecap="round" stroke-linejoin="round"/>
<path d="M72.8633 14.1374V2.0892" stroke="white" stroke-width="1.652" stroke-miterlimit="10" stroke-linecap="round" stroke-linejoin="round"/>
<path d="M87.2275 14.1374V2.0892" stroke="white" stroke-width="1.652" stroke-miterlimit="10" stroke-linecap="round" stroke-linejoin="round"/>
<path d="M101.61 14.1374V2.0892" stroke="white" stroke-width="1.652" stroke-miterlimit="10" stroke-linecap="round" stroke-linejoin="round"/>
<path d="M1.00293 80.8418V68.7935" stroke="white" stroke-width="1.652" stroke-miterlimit="10" stroke-linecap="round" stroke-linejoin="round"/>
<path d="M15.3672 80.8418V68.7935" stroke="white" stroke-width="1.652" stroke-miterlimit="10" stroke-linecap="round" stroke-linejoin="round"/>
<path d="M29.7505 80.8418V68.7935" stroke="white" stroke-width="1.652" stroke-miterlimit="10" stroke-linecap="round" stroke-linejoin="round"/>
<path d="M44.1152 80.8418V68.7935" stroke="white" stroke-width="1.652" stroke-miterlimit="10" stroke-linecap="round" stroke-linejoin="round"/>
<path d="M58.4976 80.8418V68.7935" stroke="white" stroke-width="1.652" stroke-miterlimit="10" stroke-linecap="round" stroke-linejoin="round"/>
<path d="M72.8633 80.8418V68.7935" stroke="white" stroke-width="1.652" stroke-miterlimit="10" stroke-linecap="round" stroke-linejoin="round"/>
<path d="M87.2275 80.8418V68.7935" stroke="white" stroke-width="1.652" stroke-miterlimit="10" stroke-linecap="round" stroke-linejoin="round"/>
<path d="M101.61 80.8418V68.7935" stroke="white" stroke-width="1.652" stroke-miterlimit="10" stroke-linecap="round" stroke-linejoin="round"/>
<path d="M1 1.00001L1 82.1436L101.626 82.1436L101.626 1.00001L1 1.00001Z" stroke="white" stroke-width="1.652" stroke-miterlimit="10" stroke-linecap="round" stroke-linejoin="round"/>
<path d="M1 14.7294L1 68.4142L101.626 68.4142L101.626 14.7294L1 14.7294Z" stroke="white" stroke-width="1.652" stroke-miterlimit="10" stroke-linecap="round" stroke-linejoin="round"/>
<path d="M51.3252 67.9903V15.1648" stroke="white" stroke-width="1.652" stroke-miterlimit="10" stroke-linecap="round" stroke-linejoin="round"/>
</svg>
